<svg xmlns="http://www.w3.org/2000/svg" viewBox="0 0 1090.81 307.68"><defs><style>.cls-1,.cls-12,.cls-2,.cls-21,.cls-39,.cls-53,.cls-66,.cls-78,.cls-85,.cls-89{fill:none;}.cls-1,.cls-2{stroke:#969495;stroke-linecap:round;stroke-linejoin:round;stroke-width:4px;}.cls-1{stroke-dasharray:0 7.98;}.cls-14,.cls-25,.cls-3,.cls-48,.cls-54,.cls-57,.cls-67,.cls-68,.cls-79,.cls-80,.cls-86,.cls-87{font-size:20px;font-family:ProximaNova-Bold, Proxima Nova;font-weight:700;}.cls-13,.cls-3{fill:#c00d3e;}.cls-4,.cls-79{letter-spacing:0.06em;}.cls-5,.cls-59{letter-spacing:0.06em;}.cls-30,.cls-6,.cls-87{letter-spacing:0.06em;}.cls-30,.cls-35,.cls-50,.cls-59,.cls-7,.cls-70,.cls-76{font-size:18px;font-family:ProximaNova-Regular, Proxima Nova;}.cls-8{letter-spacing:0.04em;}.cls-50,.cls-9{letter-spacing:0.04em;}.cls-10{letter-spacing:0.04em;}.cls-11{letter-spacing:0.04em;}.cls-12{stroke:#c00d3e;}.cls-12,.cls-21,.cls-39,.cls-53,.cls-66,.cls-78,.cls-85,.cls-89{stroke-width:2px;}.cls-14,.cls-22{fill:#b8bb2c;}.cls-15{letter-spacing:0.09em;}.cls-16{letter-spacing:0.09em;}.cls-17{letter-spacing:0.09em;}.cls-18{letter-spacing:-0.08em;}.cls-19{letter-spacing:0.03em;}.cls-20{letter-spacing:0.03em;}.cls-21{stroke:#b8bb2c;}.cls-23{fill:#db8d57;}.cls-24,.cls-25{fill:#cf6721;}.cls-25{letter-spacing:0.04em;}.cls-26{letter-spacing:0.04em;}.cls-27{letter-spacing:0.04em;}.cls-28{letter-spacing:0.04em;}.cls-29{letter-spacing:0em;}.cls-31{letter-spacing:-0.05em;}.cls-32{letter-spacing:0.06em;}.cls-33{letter-spacing:0em;}.cls-34{letter-spacing:0.05em;}.cls-35{letter-spacing:0.01em;}.cls-36{letter-spacing:0.01em;}.cls-37{letter-spacing:0.01em;}.cls-38{letter-spacing:0.01em;}.cls-39{stroke:#cf6721;}.cls-40{fill:#a66e83;}.cls-41,.cls-48{fill:#8c3f61;}.cls-42{fill:#f0cc84;}.cls-43,.cls-54,.cls-57{fill:#e9ba56;}.cls-44{fill:#63909c;}.cls-45{fill:#2f6b78;}.cls-46{fill:#1d4467;}.cls-47,.cls-79,.cls-80{fill:#00062f;}.cls-49{letter-spacing:0.06em;}.cls-51{letter-spacing:0em;}.cls-52{letter-spacing:0.06em;}.cls-53{stroke:#8c3f61;}.cls-55{letter-spacing:0.06em;}.cls-56,.cls-57,.cls-68,.cls-86{letter-spacing:0.06em;}.cls-58{letter-spacing:0em;}.cls-60{letter-spacing:0.06em;}.cls-61{letter-spacing:0em;}.cls-62{letter-spacing:0em;}.cls-63{letter-spacing:0.04em;}.cls-64{letter-spacing:0.04em;}.cls-65{letter-spacing:0.04em;}.cls-66{stroke:#e9ba56;}.cls-67,.cls-68,.cls-70,.cls-76{fill:#fff;}.cls-69{letter-spacing:0.06em;}.cls-70{letter-spacing:-0.05em;}.cls-71{letter-spacing:-0.01em;}.cls-72{letter-spacing:-0.01em;}.cls-73{letter-spacing:-0.01em;}.cls-74{letter-spacing:-0.07em;}.cls-75{letter-spacing:0em;}.cls-77{letter-spacing:-0.01em;}.cls-78{stroke:#2f6b78;}.cls-81{letter-spacing:0.05em;}.cls-82{letter-spacing:0.05em;}.cls-83{letter-spacing:0.06em;}.cls-84{letter-spacing:0.06em;}.cls-85{stroke:#00062f;}.cls-86,.cls-87,.cls-90{fill:#89959d;}.cls-88{letter-spacing:0.05em;}.cls-89{stroke:#89959d;}.cls-91{fill:#cacb6d;}.cls-92{fill:#a6afb5;}</style></defs><title>timeline-full</title><g id="Layer_2" data-name="Layer 2"><g id="Layer_1-2" data-name="Layer 1"><line class="cls-1" x1="1078.9" y1="155.36" x2="5.99" y2="155.36"/><path class="cls-2" d="M2,155.36H2m1084.88,0h0"/><text class="cls-3" transform="translate(49 232.48)"><tspan class="cls-4">Adver</tspan><tspan class="cls-5" x="60.22" y="0">t</tspan><tspan class="cls-4" x="68.22" y="0">isi</tspan><tspan class="cls-5" x="91.66" y="0">n</tspan><tspan class="cls-6" x="104.48" y="0">g Inter</tspan><tspan x="172.2" y="0">n</tspan></text><text class="cls-7" transform="translate(49 254.08)"><tspan class="cls-8">D</tspan><tspan class="cls-9" x="13.28" y="0">a</tspan><tspan class="cls-10" x="23.44" y="0">llas Morning</tspan><tspan class="cls-11" x="127.26" y="0" xml:space="preserve"> N</tspan><tspan class="cls-8" x="145.98" y="0">e</tspan><tspan class="cls-11" x="156.8" y="0">ws</tspan><tspan x="179.71" y="0">,</tspan></text><text class="cls-7" transform="translate(49 275.68)"><tspan class="cls-8">D</tspan><tspan class="cls-9" x="13.28" y="0">a</tspan><tspan class="cls-10" x="23.44" y="0">llas, TX </tspan><tspan class="cls-9" x="90.97" y="0">5</tspan><tspan class="cls-8" x="102.26" y="0">/99 -</tspan><tspan class="cls-9" x="142.32" y="0"> </tspan><tspan class="cls-8" x="147.63" y="0">7/9</tspan><tspan x="174.92" y="0">9 </tspan></text><rect class="cls-12" x="40" y="207.68" width="203.64" height="78.16"/><polygon class="cls-13" points="85.48 183.81 67 208.54 103.96 208.54 85.48 183.81"/><text class="cls-14" transform="translate(277.3 232.48)"><tspan class="cls-15">Creativ</tspan><tspan class="cls-16" x="77.26" y="0">e</tspan><tspan class="cls-15" x="90.06" y="0" xml:space="preserve"> I</tspan><tspan class="cls-16" x="104.18" y="0">n</tspan><tspan class="cls-15" x="117.5" y="0">t</tspan><tspan class="cls-16" x="126.02" y="0">e</tspan><tspan class="cls-17" x="138.82" y="0">r</tspan><tspan x="147.78" y="0">n</tspan></text><text class="cls-7" transform="translate(277.3 254.08)"><tspan class="cls-18">T</tspan><tspan class="cls-10" x="8.87" y="0">o</tspan><tspan class="cls-9" x="19.85" y="0">c</tspan><tspan class="cls-10" x="29.43" y="0">quig</tspan><tspan class="cls-9" x="66.8" y="0">n</tspan><tspan class="cls-8" x="77.38" y="0">y</tspan><tspan class="cls-19" x="86.88" y="0"> </tspan><tspan class="cls-8" x="92.12" y="0">A</tspan><tspan class="cls-9" x="104.65" y="0">d</tspan><tspan class="cls-8" x="115.67" y="0">verti</tspan><tspan class="cls-9" x="153.32" y="0">s</tspan><tspan class="cls-8" x="162.36" y="0">i</tspan><tspan class="cls-9" x="167.09" y="0">n</tspan><tspan class="cls-10" x="177.68" y="0">g</tspan><tspan x="188.69" y="0">, </tspan></text><text class="cls-7" transform="translate(277.3 275.68)"><tspan class="cls-20">A</tspan><tspan class="cls-10" x="12.29" y="0">u</tspan><tspan class="cls-9" x="22.9" y="0">s</tspan><tspan class="cls-8" x="31.93" y="0">ti</tspan><tspan class="cls-9" x="42.64" y="0">n,</tspan><tspan class="cls-10" x="58.03" y="0" xml:space="preserve"> TX</tspan><tspan class="cls-9" x="86.72" y="0"> </tspan><tspan class="cls-8" x="92.03" y="0">1/</tspan><tspan class="cls-11" x="104.83" y="0">0</tspan><tspan class="cls-8" x="116.51" y="0">3 -</tspan><tspan class="cls-9" x="138.63" y="0"> </tspan><tspan class="cls-10" x="143.94" y="0">5/0</tspan><tspan x="172.96" y="0">3</tspan></text><rect class="cls-21" x="268.3" y="207.68" width="210.87" height="78.16"/><polygon class="cls-22" points="285.78 183.81 267.3 208.54 304.26 208.54 285.78 183.81"/><g id="timeblock-02"><rect class="cls-23" x="132.48" y="135.7" width="171.9" height="39.33"/><path class="cls-24" d="M131.48,175.27a19.9,19.9,0,1,0-19.9-19.9,19.9,19.9,0,0,0,19.9,19.9"/><path class="cls-24" d="M305.38,175.27a19.9,19.9,0,1,0-19.9-19.9,19.9,19.9,0,0,0,19.9,19.9"/></g><text class="cls-25" transform="translate(118.58 25.8)">B<tspan class="cls-26" x="14" y="0">a</tspan><tspan class="cls-27" x="25.62" y="0">c</tspan><tspan class="cls-28" x="36.34" y="0">helor o</tspan><tspan x="104.66" y="0">f</tspan><tspan class="cls-28" x="111.94" y="0" xml:space="preserve"> Arts</tspan><tspan class="cls-27" x="158.04" y="0"> </tspan><tspan class="cls-26" x="163.9" y="0">in Ar</tspan><tspan class="cls-29" x="210.34" y="0">t</tspan></text><text class="cls-30" transform="translate(118.58 47.4)">University of <tspan class="cls-31" x="118.55" y="0">T</tspan><tspan class="cls-32" x="127.87" y="0">exa</tspan><tspan class="cls-5" x="159.64" y="0">s</tspan><tspan class="cls-33" x="169.13" y="0">, </tspan></text><text class="cls-7" transform="translate(118.58 69)"><tspan class="cls-34">A</tspan><tspan class="cls-32" x="12.74" y="0">ustin 8/99 - 5/0</tspan><tspan x="151.79" y="0">3 </tspan></text><text class="cls-35" transform="translate(118.58 90.6)">G<tspan class="cls-36" x="13.05" y="0">r</tspan><tspan class="cls-37" x="19.22" y="0">a</tspan><tspan class="cls-36" x="28.93" y="0">d</tspan><tspan x="39.51" y="0">u</tspan><tspan class="cls-36" x="49.64" y="0">ated </tspan><tspan x="90.72" y="0">w</tspan><tspan class="cls-38" x="104.15" y="0">ith Honor</tspan><tspan class="cls-33" x="179.44" y="0">s</tspan></text><polygon class="cls-39" points="109.58 1 109.58 1 109.58 102 345.02 102 345.02 1 109.58 1"/><polygon class="cls-24" points="133.48 127.31 151.96 102.58 115 102.58 133.48 127.31"/><g id="timeblock-04"><rect class="cls-40" x="360.92" y="135.7" width="171.9" height="39.33"/><path class="cls-41" d="M359.92,175.27a19.9,19.9,0,1,0-19.9-19.9,19.9,19.9,0,0,0,19.9,19.9"/><path class="cls-41" d="M533.82,175.27a19.9,19.9,0,1,0-19.9-19.9,19.9,19.9,0,0,0,19.9,19.9"/></g><g id="timeblock-06"><rect class="cls-42" x="578.62" y="135.7" width="199.06" height="39.33"/><path class="cls-43" d="M577.62,175.26a19.9,19.9,0,1,0-19.9-19.9,19.9,19.9,0,0,0,19.9,19.9"/><path class="cls-43" d="M777.53,175.26a19.9,19.9,0,1,0-19.9-19.9,19.9,19.9,0,0,0,19.9,19.9"/></g><g id="timeblock-08"><rect class="cls-44" x="845.5" y="135.7" width="150.23" height="39.33"/><path class="cls-45" d="M844.5,175.26a19.9,19.9,0,1,0-19.9-19.9,19.9,19.9,0,0,0,19.9,19.9"/><path class="cls-44" d="M1000.4,175.26a19.9,19.9,0,1,0-19.9-19.9,19.9,19.9,0,0,0,19.9,19.9"/></g><g id="timeblock-05"><rect class="cls-46" x="535.14" y="145.36" width="312.14" height="20"/><path class="cls-47" d="M534.47,168.8A13.43,13.43,0,1,0,521,155.36a13.43,13.43,0,0,0,13.43,13.43"/><path class="cls-47" d="M843.85,168.8a13.43,13.43,0,1,0-13.43-13.43,13.43,13.43,0,0,0,13.43,13.43"/></g><path id="timeblock-01" class="cls-13" d="M85.74,175.26a19.9,19.9,0,1,0-19.9-19.9,19.9,19.9,0,0,0,19.9,19.9"/><path class="cls-47" d="M7.87,108.2c1.08-1,2.38-2.3,3.46-3.46a.59.59,0,0,1,.94,0c1,.94,1.12,2.3-.25,4.9-2.09,4-6.08,10.65-8.93,17.46-.14.36-.4.43-.65.14-.58-.65-.86-1.76-.18-4s4.21-9.4,6.91-14.29C7.33,109.07,7.54,108.53,7.87,108.2Z"/><path class="cls-47" d="M19.57,118.5c-2.16-1-3.64-4.14-1-8.93,2.38-4.39,5.76-6.08,8.85-4.54,3.35,1.69,3.13,7-.4,14.11-2.7,5.43-5.58,8.1-9.14,8.17-2,0-4.57-.86-4.72-3.92a3.34,3.34,0,0,1,1.44-3c.4-.25.79-.32.68.22-.72,3.2,0,4.79,1.22,5.22,2.09.72,5.18-1.69,8.06-7.52A5.15,5.15,0,0,1,19.57,118.5Zm7.06-12.42c-1.33-.72-4.18,1.55-5.83,4.71s-1.73,6-.29,6.73c1.66.79,4.46-.94,5.94-4.61C28,109,27.59,106.62,26.62,106.08Z"/><path class="cls-47" d="M37.64,118.5c-2.16-1-3.64-4.14-1-8.93,2.38-4.39,5.76-6.08,8.85-4.54,3.35,1.69,3.13,7-.4,14.11-2.7,5.43-5.58,8.1-9.14,8.17-2,0-4.57-.86-4.72-3.92a3.34,3.34,0,0,1,1.44-3c.4-.25.79-.32.68.22-.72,3.2,0,4.79,1.22,5.22,2.09.72,5.18-1.69,8.06-7.52A5.15,5.15,0,0,1,37.64,118.5Zm7.06-12.42c-1.33-.72-4.18,1.55-5.83,4.71s-1.73,6-.29,6.73c1.66.79,4.46-.94,5.94-4.61C46.06,109,45.67,106.62,44.69,106.08Z"/><path class="cls-47" d="M55.71,118.5c-2.16-1-3.64-4.14-1-8.93,2.38-4.39,5.76-6.08,8.85-4.54,3.35,1.69,3.13,7-.4,14.11-2.7,5.43-5.58,8.1-9.14,8.17-2,0-4.57-.86-4.72-3.92a3.34,3.34,0,0,1,1.44-3c.4-.25.79-.32.68.22-.72,3.2,0,4.79,1.22,5.22,2.09.72,5.18-1.69,8.06-7.52A5.15,5.15,0,0,1,55.71,118.5Zm7.06-12.42c-1.33-.72-4.18,1.55-5.83,4.71s-1.73,6-.29,6.73c1.66.79,4.46-.94,5.94-4.61C64.13,109,63.74,106.62,62.77,106.08Z"/><path class="cls-47" d="M1031.05,210.09c1.76,0,2.81.61,3.2,1.73.11.32.11.54-.36.54a40.12,40.12,0,0,0-8.89,1.4c-.94.29-1.4.18-1.8-.25a4.43,4.43,0,0,1-.9-1.51c-.29-.72-.18-1,.58-1.44,9.65-5.76,18.14-14.79,15.66-17.57-1.66-1.83-4.64,2.05-5.83,3.85s-2,2.48-3.6,2.41c-.47,0-.5-.14-.36-.58.61-1.73,2.81-5.58,5.65-7a4.46,4.46,0,0,1,5.22.61c1.33,1.33,1.91,3.24.4,6.3-1.4,2.81-6.8,8.64-13.86,12.38A20.36,20.36,0,0,1,1031.05,210.09Z"/><path class="cls-47" d="M1058.84,205c-2.56,5.29-6.7,9.57-11.3,8.1-2.77-.9-4-3.38-4.07-6.16-.11-7.38,6-14.15,9.79-15.73,1.94-.83,3.64-.5,4.57.47C1062,193.24,1061.22,200.08,1058.84,205Zm-1.66-12.53c-1.66-.58-5.87,2.09-8.93,7.34s-3.06,11.12-.72,12,6.19-2.16,8.82-7.59C1059.27,198.21,1059.06,193.1,1057.18,192.45Z"/><path class="cls-47" d="M1069,194.83c1.08-1,2.38-2.3,3.46-3.46a.59.59,0,0,1,.94,0c1,.94,1.12,2.3-.25,4.9-2.09,4-6.08,10.65-8.93,17.46-.14.36-.4.43-.65.14-.58-.65-.86-1.76-.18-4s4.21-9.4,6.91-14.29C1068.49,195.69,1068.71,195.15,1069,194.83Z"/><path class="cls-47" d="M1083.39,194.54c-2.38.32-3.46-.72-3.82-1.91-.11-.32,0-.43.4-.43,2.84,0,6-.83,8-1,.76-.07,1.15-.14,1.66.58a10.46,10.46,0,0,1,1,2.23c.25.72.07.94-.68,1.66a105.7,105.7,0,0,0-14.36,17.85q-.32.49-.65,0c-.47-.72-.47-2.05.61-4.1,2.12-4.07,8.67-12.2,12.78-15.84C1086.49,193.89,1084.83,194.36,1083.39,194.54Z"/><text class="cls-48" transform="translate(373.48 25.8)"><tspan class="cls-4">Colorist </tspan><tspan x="86.78" y="0">&amp; </tspan></text><text class="cls-48" transform="translate(373.48 49.8)"><tspan class="cls-6">Graphi</tspan><tspan class="cls-49" x="68.38" y="0">c</tspan><tspan class="cls-6" x="79.6" y="0" xml:space="preserve"> Design</tspan><tspan class="cls-49" x="156.84" y="0">e</tspan><tspan x="169.14" y="0">r</tspan></text><text class="cls-50" transform="translate(373.48 71.4)">B<tspan class="cls-8" x="11.99" y="0">e</tspan><tspan x="22.81" y="0">au</tspan><tspan class="cls-8" x="43.54" y="0">x</tspan><tspan class="cls-11" x="52.97" y="0"> </tspan><tspan class="cls-8" x="58.28" y="0">Art</tspan><tspan x="83.41" y="0">s,</tspan><tspan class="cls-8" x="97.25" y="0"> </tspan><tspan x="102.58" y="0">Da</tspan><tspan class="cls-10" x="126" y="0">ll</tspan><tspan x="135.47" y="0">as</tspan><tspan class="cls-10" x="154.65" y="0">,</tspan><tspan x="159.48" y="0"> </tspan><tspan class="cls-8" x="164.79" y="0">T</tspan><tspan class="cls-51" x="175.73" y="0">X </tspan></text><text class="cls-7" transform="translate(373.48 93)"><tspan class="cls-32">10/0</tspan><tspan class="cls-5" x="38" y="0">4</tspan><tspan class="cls-6" x="49.16" y="0" xml:space="preserve"> -</tspan><tspan class="cls-52" x="61.47" y="0"> </tspan><tspan class="cls-32" x="67.23" y="0">7/0</tspan><tspan x="96.25" y="0">8</tspan></text><rect class="cls-53" x="364.48" y="1" width="205.68" height="101"/><polygon class="cls-41" points="381.96 127.73 400.45 103 363.48 103 381.96 127.73"/><text class="cls-54" transform="translate(598.26 25.8)"><tspan class="cls-6">Art</tspan><tspan class="cls-55" x="31.42" y="0"> </tspan><tspan class="cls-56" x="37.78" y="0">Instr</tspan><tspan class="cls-55" x="84.64" y="0">u</tspan><tspan class="cls-56" x="97.46" y="0">ctor </tspan><tspan x="144.3" y="0">&amp; </tspan></text><text class="cls-57" transform="translate(598.26 49.8)">Gra<tspan class="cls-5" x="36.24" y="0">p</tspan><tspan class="cls-6" x="49.18" y="0">hic Designe</tspan><tspan class="cls-58" x="169.16" y="0">r</tspan></text><text class="cls-59" transform="translate(598.26 71.4)">S<tspan class="cls-6" x="11.66" y="0">ofia</tspan><tspan class="cls-60" x="43.99" y="0"> </tspan><tspan class="cls-6" x="49.75" y="0">Art</tspan><tspan class="cls-60" x="76.23" y="0"> </tspan><tspan class="cls-6" x="81.99" y="0">Academ</tspan><tspan class="cls-61" x="154.06" y="0">y</tspan><tspan class="cls-62" x="162.97" y="0">, </tspan></text><text class="cls-7" transform="translate(598.26 93)"><tspan class="cls-9">Da</tspan><tspan class="cls-10" x="23.42" y="0">ll</tspan><tspan class="cls-63" x="32.89" y="0">a</tspan><tspan class="cls-10" x="43.04" y="0">s</tspan><tspan class="cls-64" x="52.09" y="0">, </tspan><tspan class="cls-65" x="62.21" y="0">T</tspan><tspan class="cls-63" x="73.15" y="0">X</tspan><tspan class="cls-65" x="85.55" y="0" xml:space="preserve"> 10/0</tspan><tspan class="cls-9" x="127.08" y="0">8</tspan><tspan class="cls-65" x="138.2" y="0" xml:space="preserve"> - 10/1</tspan><tspan x="186.23" y="0">3</tspan></text><rect class="cls-66" x="589.26" y="1" width="214.63" height="101"/><polygon class="cls-43" points="606.75 127.73 625.23 103 588.26 103 606.75 127.73"/><rect class="cls-45" x="823.69" y="1" width="194.16" height="101"/><text class="cls-67" transform="translate(832.69 25.8)"><tspan class="cls-6">Art</tspan><tspan class="cls-55" x="31.42" y="0"> </tspan><tspan class="cls-56" x="37.78" y="0">Direc</tspan><tspan class="cls-5" x="91.74" y="0">t</tspan><tspan class="cls-56" x="99.74" y="0">or</tspan><tspan class="cls-5" x="120.94" y="0"> </tspan><tspan x="127.3" y="0">&amp; </tspan></text><text class="cls-68" transform="translate(832.69 49.8)">Gra<tspan class="cls-5" x="36.24" y="0">p</tspan><tspan class="cls-6" x="49.18" y="0">hic</tspan><tspan class="cls-69" x="79.6" y="0"> </tspan><tspan x="85.86" y="0">D</tspan><tspan class="cls-5" x="101.48" y="0">e</tspan><tspan class="cls-6" x="113.78" y="0">sig</tspan><tspan class="cls-5" x="143.86" y="0">n</tspan><tspan class="cls-6" x="156.68" y="0">e</tspan><tspan class="cls-58" x="169" y="0">r</tspan></text><text class="cls-70" transform="translate(832.69 71.4)">K<tspan class="cls-71" x="9.99" y="0">or</tspan><tspan class="cls-72" x="25.83" y="0">n </tspan><tspan class="cls-73" x="39.96" y="0">Ferr</tspan><tspan class="cls-74" x="71.08" y="0">y</tspan><tspan class="cls-72" x="78.66" y="0">,</tspan><tspan class="cls-73" x="82.58" y="0"> </tspan><tspan class="cls-72" x="87.03" y="0">D</tspan><tspan class="cls-71" x="99.41" y="0">alla</tspan><tspan class="cls-72" x="125.69" y="0">s,</tspan><tspan class="cls-71" x="137.77" y="0" xml:space="preserve"> T</tspan><tspan class="cls-75" x="152.28" y="0">X </tspan></text><text class="cls-76" transform="translate(832.69 93)"><tspan class="cls-71">6/14</tspan><tspan class="cls-72" x="31.32" y="0"> </tspan><tspan class="cls-73" x="35.75" y="0">-</tspan><tspan class="cls-72" x="40.95" y="0"> </tspan><tspan class="cls-73" x="45.38" y="0">Pre</tspan><tspan class="cls-77" x="71.42" y="0">s</tspan><tspan class="cls-71" x="79.58" y="0">e</tspan><tspan class="cls-72" x="89.51" y="0">n</tspan><tspan x="99.21" y="0">t</tspan></text><rect class="cls-78" x="823.69" y="1" width="194.16" height="101"/><polygon class="cls-45" points="841.56 127.73 860.05 103 823.08 103 841.56 127.73"/><text class="cls-79" transform="translate(525.36 232.48)">Fre<tspan class="cls-5" x="33.46" y="0">e</tspan><tspan class="cls-56" x="45.76" y="0">lance Ar</tspan><tspan class="cls-5" x="130.38" y="0">t</tspan><tspan class="cls-6" x="138.38" y="0">is</tspan><tspan class="cls-58" x="155.5" y="0">t </tspan></text><text class="cls-80" transform="translate(525.36 254.48)"><tspan class="cls-6">&amp; Illustra</tspan><tspan class="cls-5" x="92.18" y="0">t</tspan><tspan class="cls-56" x="100.18" y="0">o</tspan><tspan x="112.92" y="0">r</tspan></text><text class="cls-7" transform="translate(525.36 276.08)"><tspan class="cls-81">P</tspan><tspan class="cls-6" x="11.45" y="0">osta</tspan><tspan class="cls-82" x="49.43" y="0"> </tspan><tspan class="cls-83" x="55.04" y="0">B</tspan><tspan class="cls-6" x="67.48" y="0">ella,</tspan><tspan class="cls-82" x="105.01" y="0"> </tspan><tspan class="cls-6" x="110.63" y="0">Dalla</tspan><tspan class="cls-5" x="155.97" y="0">s</tspan><tspan x="165.45" y="0">, </tspan></text><text class="cls-7" transform="translate(525.36 297.68)"><tspan class="cls-32">TX </tspan><tspan class="cls-5" x="30.04" y="0">5</tspan><tspan class="cls-6" x="41.78" y="0">/0</tspan><tspan class="cls-5" x="60.39" y="0">8</tspan><tspan class="cls-6" x="71.96" y="0" xml:space="preserve"> -</tspan><tspan class="cls-5" x="84.27" y="0"> </tspan><tspan class="cls-84" x="90.03" y="0">7/1</tspan><tspan x="114.14" y="0">4</tspan></text><rect class="cls-85" x="516.36" y="207.68" width="187.63" height="99"/><polygon class="cls-47" points="533.84 181.81 515.36 206.54 552.32 206.54 533.84 181.81"/><text class="cls-86" transform="translate(746.33 232.48)">Gra<tspan class="cls-5" x="36.24" y="0">p</tspan><tspan class="cls-6" x="49.18" y="0">hic Designe</tspan><tspan class="cls-58" x="169.16" y="0">r </tspan></text><text class="cls-87" transform="translate(746.33 254.48)">&amp; Illustra<tspan class="cls-5" x="92.18" y="0">t</tspan><tspan x="100.18" y="0">o</tspan><tspan class="cls-58" x="112.92" y="0">r</tspan></text><text class="cls-7" transform="translate(746.33 276.08)"><tspan class="cls-6">A</tspan><tspan class="cls-5" x="12.98" y="0">c</tspan><tspan class="cls-6" x="23" y="0">colades</tspan><tspan class="cls-5" x="92.54" y="0"> </tspan><tspan class="cls-84" x="98.3" y="0">PR</tspan><tspan x="122.07" y="0">, </tspan></text><text class="cls-7" transform="translate(746.33 297.68)"><tspan class="cls-88">A</tspan><tspan class="cls-83" x="12.74" y="0">us</tspan><tspan class="cls-6" x="33.26" y="0">tin,</tspan><tspan class="cls-5" x="61.2" y="0"> </tspan><tspan class="cls-6" x="66.96" y="0">TX</tspan><tspan class="cls-5" x="91.22" y="0"> </tspan><tspan class="cls-84" x="96.98" y="0">1/13</tspan><tspan class="cls-5" x="129.08" y="0"> </tspan><tspan class="cls-84" x="134.84" y="0">- 6/1</tspan><tspan x="172.62" y="0">4</tspan></text><rect class="cls-89" x="737.33" y="207.68" width="201.63" height="99"/><polygon class="cls-90" points="754.81 181.81 736.33 206.54 773.29 206.54 754.81 181.81"/><g id="timeblock-03"><rect class="cls-91" x="271.9" y="145.36" width="34.37" height="20"/><path class="cls-22" d="M271.9,168.8a13.43,13.43,0,1,0-13.43-13.43A13.43,13.43,0,0,0,271.9,168.8"/><path class="cls-22" d="M304.27,168.8a13.43,13.43,0,1,0-13.43-13.43,13.43,13.43,0,0,0,13.43,13.43"/></g><g id="timeblock-07"><rect class="cls-92" x="758.81" y="148.61" width="82.37" height="13.5"/><path class="cls-90" d="M759.07,168a12.59,12.59,0,1,0-12.59-12.59A12.59,12.59,0,0,0,759.07,168"/><path class="cls-90" d="M843.82,164.43a9.07,9.07,0,1,0-9.07-9.07,9.07,9.07,0,0,0,9.07,9.07"/></g><path class="cls-90" d="M10.08,165.44A10.07,10.07,0,1,0,0,155.36a10.08,10.08,0,0,0,10.08,10.07"/><path class="cls-90" d="M1078.85,165.44a10.07,10.07,0,1,0-10.08-10.07,10.08,10.08,0,0,0,10.08,10.07"/></g></g></svg>